<mxfile host="app.diagrams.net" modified="2022-01-12T02:27:57.652Z" agent="5.0 (Macintosh; Intel Mac OS X 10_15_7) AppleWebKit/537.36 (KHTML, like Gecko) Chrome/97.0.4692.71 Safari/537.36" etag="LckiddsNN8vCwjGbCqjh" version="16.2.4" type="github">
  <diagram id="RwgmKmacjplYaZAbFEFn" name="Page-1">
    <mxGraphModel dx="1904" dy="1021" grid="1" gridSize="10" guides="1" tooltips="1" connect="1" arrows="1" fold="1" page="1" pageScale="1" pageWidth="1169" pageHeight="827" math="0" shadow="0">
      <root>
        <mxCell id="0" />
        <mxCell id="1" parent="0" />
        <mxCell id="7bloHGnxtMLxi0LwxBwS-1" value="고객의 예식 확정" style="rounded=1;whiteSpace=wrap;html=1;fillColor=#954BD6;strokeColor=#3700CC;fontColor=#ffffff;" parent="1" vertex="1">
          <mxGeometry x="522" y="40" width="120" height="50" as="geometry" />
        </mxCell>
        <mxCell id="7bloHGnxtMLxi0LwxBwS-2" value="청첩장 제작&amp;nbsp;&lt;br&gt;자료수집" style="shape=hexagon;perimeter=hexagonPerimeter2;whiteSpace=wrap;html=1;fixedSize=1;fillColor=#FFE6CC;strokeColor=#b46504;gradientColor=none;" parent="1" vertex="1">
          <mxGeometry x="522" y="133" width="120" height="60" as="geometry" />
        </mxCell>
        <mxCell id="7bloHGnxtMLxi0LwxBwS-7" value="보자기카드 사이트 접속&lt;br&gt;청첩장 디자인 확인" style="rounded=0;whiteSpace=wrap;html=1;fillColor=#FFE6CC;strokeColor=#b46504;gradientColor=none;" parent="1" vertex="1">
          <mxGeometry x="517" y="380" width="130" height="60" as="geometry" />
        </mxCell>
        <mxCell id="7bloHGnxtMLxi0LwxBwS-3" value="키워드 검색&lt;br&gt;( 청첩장 )" style="rounded=0;whiteSpace=wrap;html=1;fillColor=#FFE6CC;strokeColor=#b46504;gradientColor=none;" parent="1" vertex="1">
          <mxGeometry x="522" y="258" width="120" height="50" as="geometry" />
        </mxCell>
        <mxCell id="7bloHGnxtMLxi0LwxBwS-4" value="보자기카드&lt;br&gt;상호 검색" style="rounded=0;whiteSpace=wrap;html=1;fillColor=#FFE6CC;strokeColor=#b46504;gradientColor=none;" parent="1" vertex="1">
          <mxGeometry x="678" y="258" width="120" height="50" as="geometry" />
        </mxCell>
        <mxCell id="7bloHGnxtMLxi0LwxBwS-5" value="웨딩카페" style="rounded=0;whiteSpace=wrap;html=1;fillColor=#FFE6CC;strokeColor=#b46504;gradientColor=none;" parent="1" vertex="1">
          <mxGeometry x="358" y="258" width="120" height="50" as="geometry" />
        </mxCell>
        <mxCell id="e0fxTBYjFnkqFgtcv9nF-8" value="" style="edgeStyle=orthogonalEdgeStyle;rounded=0;orthogonalLoop=1;jettySize=auto;html=1;" parent="1" edge="1">
          <mxGeometry relative="1" as="geometry">
            <mxPoint x="581.5" y="440" as="sourcePoint" />
            <mxPoint x="581.5" y="490" as="targetPoint" />
          </mxGeometry>
        </mxCell>
        <mxCell id="e0fxTBYjFnkqFgtcv9nF-6" value="휴대폰 본인인증 , 배송정보 입력" style="rounded=0;whiteSpace=wrap;html=1;fillColor=#FFE6CC;strokeColor=#b46504;gradientColor=none;" parent="1" vertex="1">
          <mxGeometry x="842" y="515" width="198" height="30" as="geometry" />
        </mxCell>
        <mxCell id="e0fxTBYjFnkqFgtcv9nF-17" value="&lt;span style=&quot;color: rgb(0 , 0 , 0) ; font-family: &amp;#34;helvetica&amp;#34; ; font-size: 12px ; font-style: normal ; font-weight: 400 ; letter-spacing: normal ; text-align: center ; text-indent: 0px ; text-transform: none ; word-spacing: 0px ; display: inline ; float: none&quot;&gt;샘플신청&lt;/span&gt;&lt;br style=&quot;color: rgb(0 , 0 , 0) ; font-family: &amp;#34;helvetica&amp;#34; ; font-size: 12px ; font-style: normal ; font-weight: 400 ; letter-spacing: normal ; text-align: center ; text-indent: 0px ; text-transform: none ; word-spacing: 0px&quot;&gt;&lt;span style=&quot;color: rgb(0 , 0 , 0) ; font-family: &amp;#34;helvetica&amp;#34; ; font-size: 12px ; font-style: normal ; font-weight: 400 ; letter-spacing: normal ; text-align: center ; text-indent: 0px ; text-transform: none ; word-spacing: 0px ; display: inline ; float: none&quot;&gt;(최대 10종)&lt;/span&gt;" style="rounded=0;whiteSpace=wrap;html=1;fillColor=#FFE6CC;strokeColor=#b46504;gradientColor=none;" parent="1" vertex="1">
          <mxGeometry x="522" y="500" width="120" height="60" as="geometry" />
        </mxCell>
        <mxCell id="e0fxTBYjFnkqFgtcv9nF-19" value="회원가입 / 로그인" style="rhombus;whiteSpace=wrap;html=1;fillColor=#FFE6CC;strokeColor=#b46504;gradientColor=none;" parent="1" vertex="1">
          <mxGeometry x="281" y="490" width="120" height="80" as="geometry" />
        </mxCell>
        <mxCell id="e0fxTBYjFnkqFgtcv9nF-20" value="샘플 검토 후&lt;br&gt;청첩장 제작 결정" style="rounded=0;whiteSpace=wrap;html=1;fillColor=#54BBC7;fontColor=#ffffff;strokeColor=#006EAF;" parent="1" vertex="1">
          <mxGeometry x="522" y="619" width="120" height="60" as="geometry" />
        </mxCell>
        <mxCell id="e0fxTBYjFnkqFgtcv9nF-21" value="청첩장 주문" style="rounded=0;whiteSpace=wrap;html=1;fillColor=#54BBC7;fontColor=#ffffff;strokeColor=#006EAF;" parent="1" vertex="1">
          <mxGeometry x="522" y="737" width="120" height="60" as="geometry" />
        </mxCell>
        <mxCell id="e0fxTBYjFnkqFgtcv9nF-24" value="시안 확인" style="rounded=0;whiteSpace=wrap;html=1;fillColor=#FFCCE6;strokeColor=#6c8ebf;" parent="1" vertex="1">
          <mxGeometry x="522" y="860" width="120" height="50" as="geometry" />
        </mxCell>
        <mxCell id="e0fxTBYjFnkqFgtcv9nF-25" value="시안수정" style="rhombus;whiteSpace=wrap;html=1;fillColor=#FFCCE6;strokeColor=#6c8ebf;" parent="1" vertex="1">
          <mxGeometry x="870" y="850" width="100" height="80" as="geometry" />
        </mxCell>
        <mxCell id="e0fxTBYjFnkqFgtcv9nF-26" value="최종 시안 OK" style="rounded=0;whiteSpace=wrap;html=1;fillColor=#FFCCE6;strokeColor=#6c8ebf;" parent="1" vertex="1">
          <mxGeometry x="522" y="1003" width="120" height="50" as="geometry" />
        </mxCell>
        <mxCell id="e0fxTBYjFnkqFgtcv9nF-27" value="디자인 / 가격 / 제작 스케줄 참고" style="rounded=0;whiteSpace=wrap;html=1;fillColor=#FFE6CC;strokeColor=#b46504;gradientColor=none;" parent="1" vertex="1">
          <mxGeometry x="842" y="634" width="198" height="30" as="geometry" />
        </mxCell>
        <mxCell id="e0fxTBYjFnkqFgtcv9nF-28" value="신청부수, 배송정보, 봉투내용 입력" style="rounded=0;whiteSpace=wrap;html=1;fillColor=#FFE6CC;strokeColor=#b46504;gradientColor=none;" parent="1" vertex="1">
          <mxGeometry x="842" y="752" width="198" height="30" as="geometry" />
        </mxCell>
        <mxCell id="e0fxTBYjFnkqFgtcv9nF-29" value="결제" style="rhombus;whiteSpace=wrap;html=1;fillColor=#FFCCE6;strokeColor=#6c8ebf;" parent="1" vertex="1">
          <mxGeometry x="527" y="1234" width="110" height="80" as="geometry" />
        </mxCell>
        <mxCell id="e0fxTBYjFnkqFgtcv9nF-30" value="신용카드" style="rounded=0;whiteSpace=wrap;html=1;fillColor=#FFE6CC;strokeColor=#b46504;" parent="1" vertex="1">
          <mxGeometry x="841" y="1278" width="155" height="30" as="geometry" />
        </mxCell>
        <mxCell id="e0fxTBYjFnkqFgtcv9nF-31" value="은행입금 (가상계좌)" style="rounded=0;whiteSpace=wrap;html=1;fillColor=#FFE6CC;strokeColor=#b46504;" parent="1" vertex="1">
          <mxGeometry x="841" y="1242" width="155" height="30" as="geometry" />
        </mxCell>
        <mxCell id="e0fxTBYjFnkqFgtcv9nF-32" value="제작 진행" style="rounded=0;whiteSpace=wrap;html=1;fillColor=#FF6666;fontColor=#ffffff;strokeColor=#A50040;" parent="1" vertex="1">
          <mxGeometry x="522" y="1384" width="120" height="60" as="geometry" />
        </mxCell>
        <mxCell id="e0fxTBYjFnkqFgtcv9nF-33" value="출고" style="rounded=0;whiteSpace=wrap;html=1;fillColor=#FF6666;fontColor=#ffffff;strokeColor=#A50040;" parent="1" vertex="1">
          <mxGeometry x="522" y="1514" width="120" height="60" as="geometry" />
        </mxCell>
        <mxCell id="e0fxTBYjFnkqFgtcv9nF-34" value="배송" style="rounded=0;whiteSpace=wrap;html=1;fillColor=#FF6666;fontColor=#ffffff;strokeColor=#A50040;" parent="1" vertex="1">
          <mxGeometry x="522" y="1644" width="120" height="60" as="geometry" />
        </mxCell>
        <mxCell id="e0fxTBYjFnkqFgtcv9nF-35" value="이용후기 작성 및&lt;br&gt;이벤트 참여" style="rounded=1;whiteSpace=wrap;html=1;fillColor=#954BD6;fontColor=#ffffff;strokeColor=#3700CC;" parent="1" vertex="1">
          <mxGeometry x="522" y="1774" width="120" height="60" as="geometry" />
        </mxCell>
        <mxCell id="e0fxTBYjFnkqFgtcv9nF-37" value="" style="endArrow=classic;html=1;rounded=0;" parent="1" edge="1">
          <mxGeometry width="50" height="50" relative="1" as="geometry">
            <mxPoint x="581" y="90" as="sourcePoint" />
            <mxPoint x="581" y="130" as="targetPoint" />
          </mxGeometry>
        </mxCell>
        <mxCell id="e0fxTBYjFnkqFgtcv9nF-40" value="" style="endArrow=classic;html=1;rounded=0;" parent="1" edge="1">
          <mxGeometry width="50" height="50" relative="1" as="geometry">
            <mxPoint x="579" y="193" as="sourcePoint" />
            <mxPoint x="579" y="250" as="targetPoint" />
          </mxGeometry>
        </mxCell>
        <mxCell id="e0fxTBYjFnkqFgtcv9nF-41" value="" style="endArrow=classic;html=1;rounded=0;exitX=0.833;exitY=1;exitDx=0;exitDy=0;exitPerimeter=0;" parent="1" source="7bloHGnxtMLxi0LwxBwS-2" edge="1">
          <mxGeometry width="50" height="50" relative="1" as="geometry">
            <mxPoint x="589" y="203" as="sourcePoint" />
            <mxPoint x="700" y="250" as="targetPoint" />
          </mxGeometry>
        </mxCell>
        <mxCell id="e0fxTBYjFnkqFgtcv9nF-43" value="" style="endArrow=classic;html=1;rounded=0;" parent="1" source="7bloHGnxtMLxi0LwxBwS-2" edge="1">
          <mxGeometry width="50" height="50" relative="1" as="geometry">
            <mxPoint x="420" y="180" as="sourcePoint" />
            <mxPoint x="460" y="250" as="targetPoint" />
          </mxGeometry>
        </mxCell>
        <mxCell id="e0fxTBYjFnkqFgtcv9nF-51" value="" style="endArrow=none;html=1;rounded=0;" parent="1" edge="1">
          <mxGeometry width="50" height="50" relative="1" as="geometry">
            <mxPoint x="580" y="340" as="sourcePoint" />
            <mxPoint x="692" y="308" as="targetPoint" />
          </mxGeometry>
        </mxCell>
        <mxCell id="e0fxTBYjFnkqFgtcv9nF-50" value="" style="endArrow=classic;html=1;rounded=0;" parent="1" edge="1">
          <mxGeometry width="50" height="50" relative="1" as="geometry">
            <mxPoint x="580" y="308" as="sourcePoint" />
            <mxPoint x="580" y="370" as="targetPoint" />
          </mxGeometry>
        </mxCell>
        <mxCell id="e0fxTBYjFnkqFgtcv9nF-52" value="" style="endArrow=none;html=1;rounded=0;exitX=0.917;exitY=1;exitDx=0;exitDy=0;exitPerimeter=0;" parent="1" source="7bloHGnxtMLxi0LwxBwS-5" edge="1">
          <mxGeometry width="50" height="50" relative="1" as="geometry">
            <mxPoint x="450" y="310" as="sourcePoint" />
            <mxPoint x="580" y="340" as="targetPoint" />
          </mxGeometry>
        </mxCell>
        <mxCell id="e0fxTBYjFnkqFgtcv9nF-53" value="YES" style="endArrow=classic;html=1;rounded=0;exitX=0.5;exitY=1;exitDx=0;exitDy=0;" parent="1" source="e0fxTBYjFnkqFgtcv9nF-19" edge="1">
          <mxGeometry width="50" height="50" relative="1" as="geometry">
            <mxPoint x="361" y="679" as="sourcePoint" />
            <mxPoint x="341" y="650" as="targetPoint" />
          </mxGeometry>
        </mxCell>
        <mxCell id="e0fxTBYjFnkqFgtcv9nF-54" value="&amp;nbsp;" style="endArrow=classic;html=1;rounded=0;exitX=0.5;exitY=1;exitDx=0;exitDy=0;" parent="1" edge="1">
          <mxGeometry width="50" height="50" relative="1" as="geometry">
            <mxPoint x="281" y="530" as="sourcePoint" />
            <mxPoint x="191" y="530" as="targetPoint" />
          </mxGeometry>
        </mxCell>
        <mxCell id="e0fxTBYjFnkqFgtcv9nF-55" value="&amp;nbsp; No&amp;nbsp;" style="edgeLabel;html=1;align=center;verticalAlign=middle;resizable=0;points=[];" parent="e0fxTBYjFnkqFgtcv9nF-54" vertex="1" connectable="0">
          <mxGeometry x="0.0857" relative="1" as="geometry">
            <mxPoint x="1" as="offset" />
          </mxGeometry>
        </mxCell>
        <mxCell id="e0fxTBYjFnkqFgtcv9nF-57" value="배송지 입력&lt;br&gt;할인적용" style="rounded=0;whiteSpace=wrap;html=1;fillColor=#FFCCE6;strokeColor=#6c8ebf;" parent="1" vertex="1">
          <mxGeometry x="522" y="1112" width="120" height="60" as="geometry" />
        </mxCell>
        <mxCell id="e0fxTBYjFnkqFgtcv9nF-58" value="쿠폰, 주소록 관리 등&lt;br&gt;일부 권한 제한" style="rounded=0;whiteSpace=wrap;html=1;fillColor=#FFE6CC;strokeColor=#b46504;gradientColor=none;" parent="1" vertex="1">
          <mxGeometry x="51" y="495" width="120" height="60" as="geometry" />
        </mxCell>
        <mxCell id="e0fxTBYjFnkqFgtcv9nF-59" value="권한제한 없이&amp;nbsp;&lt;br&gt;사이트 이용가능" style="rounded=0;whiteSpace=wrap;html=1;fillColor=#FFE6CC;strokeColor=#b46504;gradientColor=none;" parent="1" vertex="1">
          <mxGeometry x="281" y="656" width="120" height="60" as="geometry" />
        </mxCell>
        <mxCell id="e0fxTBYjFnkqFgtcv9nF-61" value="" style="endArrow=none;dashed=1;html=1;rounded=0;" parent="1" edge="1">
          <mxGeometry width="50" height="50" relative="1" as="geometry">
            <mxPoint x="412" y="529.5" as="sourcePoint" />
            <mxPoint x="522" y="529.5" as="targetPoint" />
          </mxGeometry>
        </mxCell>
        <mxCell id="e0fxTBYjFnkqFgtcv9nF-63" value="" style="endArrow=classic;html=1;rounded=0;exitX=0.5;exitY=1;exitDx=0;exitDy=0;" parent="1" source="e0fxTBYjFnkqFgtcv9nF-17" edge="1">
          <mxGeometry width="50" height="50" relative="1" as="geometry">
            <mxPoint x="570" y="620" as="sourcePoint" />
            <mxPoint x="582" y="610" as="targetPoint" />
          </mxGeometry>
        </mxCell>
        <mxCell id="e0fxTBYjFnkqFgtcv9nF-65" value="" style="endArrow=classic;html=1;rounded=0;" parent="1" edge="1">
          <mxGeometry width="50" height="50" relative="1" as="geometry">
            <mxPoint x="582" y="680" as="sourcePoint" />
            <mxPoint x="582" y="730" as="targetPoint" />
          </mxGeometry>
        </mxCell>
        <mxCell id="e0fxTBYjFnkqFgtcv9nF-66" value="" style="endArrow=classic;html=1;rounded=0;" parent="1" edge="1">
          <mxGeometry width="50" height="50" relative="1" as="geometry">
            <mxPoint x="582" y="800" as="sourcePoint" />
            <mxPoint x="582" y="850" as="targetPoint" />
          </mxGeometry>
        </mxCell>
        <mxCell id="e0fxTBYjFnkqFgtcv9nF-68" value="YES" style="endArrow=classic;html=1;rounded=0;" parent="1" edge="1">
          <mxGeometry width="50" height="50" relative="1" as="geometry">
            <mxPoint x="581.5" y="910" as="sourcePoint" />
            <mxPoint x="582" y="990" as="targetPoint" />
          </mxGeometry>
        </mxCell>
        <mxCell id="e0fxTBYjFnkqFgtcv9nF-72" value="" style="endArrow=classic;html=1;rounded=0;" parent="1" edge="1">
          <mxGeometry width="50" height="50" relative="1" as="geometry">
            <mxPoint x="581.5" y="1314" as="sourcePoint" />
            <mxPoint x="582" y="1374" as="targetPoint" />
          </mxGeometry>
        </mxCell>
        <mxCell id="e0fxTBYjFnkqFgtcv9nF-73" value="" style="endArrow=classic;html=1;rounded=0;" parent="1" edge="1">
          <mxGeometry width="50" height="50" relative="1" as="geometry">
            <mxPoint x="581.5" y="1444" as="sourcePoint" />
            <mxPoint x="582" y="1504" as="targetPoint" />
          </mxGeometry>
        </mxCell>
        <mxCell id="e0fxTBYjFnkqFgtcv9nF-74" value="" style="endArrow=classic;html=1;rounded=0;" parent="1" edge="1">
          <mxGeometry width="50" height="50" relative="1" as="geometry">
            <mxPoint x="581.5" y="1574" as="sourcePoint" />
            <mxPoint x="582" y="1634" as="targetPoint" />
          </mxGeometry>
        </mxCell>
        <mxCell id="e0fxTBYjFnkqFgtcv9nF-75" value="" style="endArrow=classic;html=1;rounded=0;" parent="1" edge="1">
          <mxGeometry width="50" height="50" relative="1" as="geometry">
            <mxPoint x="581.5" y="1704" as="sourcePoint" />
            <mxPoint x="582" y="1764" as="targetPoint" />
          </mxGeometry>
        </mxCell>
        <mxCell id="e0fxTBYjFnkqFgtcv9nF-78" value="" style="endArrow=classic;html=1;rounded=0;" parent="1" edge="1">
          <mxGeometry width="50" height="50" relative="1" as="geometry">
            <mxPoint x="582" y="1054" as="sourcePoint" />
            <mxPoint x="582" y="1104" as="targetPoint" />
          </mxGeometry>
        </mxCell>
        <mxCell id="e0fxTBYjFnkqFgtcv9nF-79" value="&amp;nbsp; YES&amp;nbsp;&amp;nbsp;" style="endArrow=classic;html=1;rounded=0;exitX=0.5;exitY=1;exitDx=0;exitDy=0;" parent="1" source="e0fxTBYjFnkqFgtcv9nF-25" edge="1">
          <mxGeometry width="50" height="50" relative="1" as="geometry">
            <mxPoint x="798" y="1026" as="sourcePoint" />
            <mxPoint x="650" y="1026" as="targetPoint" />
            <Array as="points">
              <mxPoint x="920" y="1026" />
            </Array>
          </mxGeometry>
        </mxCell>
        <mxCell id="e0fxTBYjFnkqFgtcv9nF-81" value="&amp;nbsp;NO&amp;nbsp;" style="endArrow=classic;html=1;rounded=0;" parent="1" edge="1">
          <mxGeometry width="50" height="50" relative="1" as="geometry">
            <mxPoint x="870" y="890" as="sourcePoint" />
            <mxPoint x="650" y="890.5" as="targetPoint" />
            <Array as="points">
              <mxPoint x="870" y="890" />
            </Array>
          </mxGeometry>
        </mxCell>
        <mxCell id="e0fxTBYjFnkqFgtcv9nF-86" value="&amp;nbsp; NO&amp;nbsp;&amp;nbsp;" style="endArrow=classic;html=1;rounded=0;" parent="1" edge="1">
          <mxGeometry width="50" height="50" relative="1" as="geometry">
            <mxPoint x="642" y="874" as="sourcePoint" />
            <mxPoint x="870" y="875" as="targetPoint" />
            <Array as="points">
              <mxPoint x="642" y="874" />
            </Array>
          </mxGeometry>
        </mxCell>
        <mxCell id="e0fxTBYjFnkqFgtcv9nF-90" value="" style="endArrow=none;dashed=1;html=1;rounded=0;fillColor=#f5f5f5;strokeColor=#B8B8B8;" parent="1" edge="1">
          <mxGeometry width="50" height="50" relative="1" as="geometry">
            <mxPoint x="660" y="529.66" as="sourcePoint" />
            <mxPoint x="830" y="530" as="targetPoint" />
          </mxGeometry>
        </mxCell>
        <mxCell id="e0fxTBYjFnkqFgtcv9nF-91" value="" style="endArrow=none;dashed=1;html=1;rounded=0;fillColor=#f5f5f5;strokeColor=#B8B8B8;" parent="1" edge="1">
          <mxGeometry width="50" height="50" relative="1" as="geometry">
            <mxPoint x="660" y="648.6599999999999" as="sourcePoint" />
            <mxPoint x="830" y="649" as="targetPoint" />
          </mxGeometry>
        </mxCell>
        <mxCell id="e0fxTBYjFnkqFgtcv9nF-93" value="" style="endArrow=none;dashed=1;html=1;rounded=0;fillColor=#f5f5f5;strokeColor=#B8B8B8;" parent="1" edge="1">
          <mxGeometry width="50" height="50" relative="1" as="geometry">
            <mxPoint x="660" y="765.9999999999999" as="sourcePoint" />
            <mxPoint x="830" y="766" as="targetPoint" />
          </mxGeometry>
        </mxCell>
        <mxCell id="e0fxTBYjFnkqFgtcv9nF-94" value="" style="endArrow=classic;html=1;rounded=0;" parent="1" edge="1">
          <mxGeometry width="50" height="50" relative="1" as="geometry">
            <mxPoint x="581.6600000000002" y="1172" as="sourcePoint" />
            <mxPoint x="581.6600000000002" y="1222" as="targetPoint" />
          </mxGeometry>
        </mxCell>
        <mxCell id="e0fxTBYjFnkqFgtcv9nF-95" value="모바일 청첩장" style="rounded=1;whiteSpace=wrap;html=1;shadow=1;" parent="1" vertex="1">
          <mxGeometry x="40" y="998" width="160" height="60" as="geometry" />
        </mxCell>
        <mxCell id="e0fxTBYjFnkqFgtcv9nF-96" value="부가상품 주문&lt;br&gt;청첩장 주문 후 쿠폰 할인적용" style="rounded=1;whiteSpace=wrap;html=1;shadow=1;glass=0;" parent="1" vertex="1">
          <mxGeometry x="40" y="782" width="160" height="60" as="geometry" />
        </mxCell>
        <mxCell id="e0fxTBYjFnkqFgtcv9nF-98" value="상품제작 (기성 / 맞춤)" style="rounded=0;whiteSpace=wrap;html=1;fillColor=#FFE6CC;strokeColor=#b46504;" parent="1" vertex="1">
          <mxGeometry x="841" y="1384" width="155" height="30" as="geometry" />
        </mxCell>
        <mxCell id="e0fxTBYjFnkqFgtcv9nF-99" value="내용 인쇄" style="rounded=0;whiteSpace=wrap;html=1;fillColor=#FFE6CC;strokeColor=#b46504;" parent="1" vertex="1">
          <mxGeometry x="841" y="1420" width="155" height="30" as="geometry" />
        </mxCell>
        <mxCell id="e0fxTBYjFnkqFgtcv9nF-100" value="납품 구성품 일체 배송용 박스 포장" style="rounded=0;whiteSpace=wrap;html=1;fillColor=#FFE6CC;strokeColor=#b46504;" parent="1" vertex="1">
          <mxGeometry x="841" y="1514" width="191" height="30" as="geometry" />
        </mxCell>
        <mxCell id="e0fxTBYjFnkqFgtcv9nF-101" value="배송 전 이상 유무 체크 (검품)" style="rounded=0;whiteSpace=wrap;html=1;fillColor=#FFE6CC;strokeColor=#b46504;" parent="1" vertex="1">
          <mxGeometry x="841" y="1550" width="191" height="30" as="geometry" />
        </mxCell>
        <mxCell id="bmNd_BosTsZR-IJBT62M-3" value="" style="group" vertex="1" connectable="0" parent="1">
          <mxGeometry x="647" y="1394" width="143" height="46" as="geometry" />
        </mxCell>
        <mxCell id="e0fxTBYjFnkqFgtcv9nF-102" value="" style="endArrow=none;dashed=1;html=1;rounded=0;fillColor=#f5f5f5;strokeColor=#cccccc;" parent="bmNd_BosTsZR-IJBT62M-3" edge="1">
          <mxGeometry width="50" height="50" relative="1" as="geometry">
            <mxPoint y="20" as="sourcePoint" />
            <mxPoint x="143" y="20" as="targetPoint" />
          </mxGeometry>
        </mxCell>
        <mxCell id="bmNd_BosTsZR-IJBT62M-5" value="" style="group" vertex="1" connectable="0" parent="1">
          <mxGeometry x="647" y="1526" width="143" height="46" as="geometry" />
        </mxCell>
        <mxCell id="bmNd_BosTsZR-IJBT62M-6" value="" style="endArrow=none;dashed=1;html=1;rounded=0;fillColor=#f5f5f5;strokeColor=#cccccc;" edge="1" parent="bmNd_BosTsZR-IJBT62M-5">
          <mxGeometry width="50" height="50" relative="1" as="geometry">
            <mxPoint y="20" as="sourcePoint" />
            <mxPoint x="143" y="20" as="targetPoint" />
          </mxGeometry>
        </mxCell>
        <mxCell id="bmNd_BosTsZR-IJBT62M-7" value="" style="endArrow=none;dashed=1;html=1;rounded=0;strokeColor=#D6D6D6;" edge="1" parent="bmNd_BosTsZR-IJBT62M-5">
          <mxGeometry width="50" height="50" relative="1" as="geometry">
            <mxPoint x="183" y="46" as="sourcePoint" />
            <mxPoint x="183" as="targetPoint" />
            <Array as="points">
              <mxPoint x="142" y="46" />
              <mxPoint x="142" y="26" />
              <mxPoint x="142" />
            </Array>
          </mxGeometry>
        </mxCell>
        <mxCell id="bmNd_BosTsZR-IJBT62M-9" value="" style="group" vertex="1" connectable="0" parent="1">
          <mxGeometry x="640" y="1250" width="143" height="46" as="geometry" />
        </mxCell>
        <mxCell id="bmNd_BosTsZR-IJBT62M-10" value="" style="endArrow=none;dashed=1;html=1;rounded=0;fillColor=#f5f5f5;strokeColor=#cccccc;" edge="1" parent="bmNd_BosTsZR-IJBT62M-9">
          <mxGeometry width="50" height="50" relative="1" as="geometry">
            <mxPoint y="20" as="sourcePoint" />
            <mxPoint x="143" y="20" as="targetPoint" />
          </mxGeometry>
        </mxCell>
        <mxCell id="bmNd_BosTsZR-IJBT62M-11" value="" style="endArrow=none;dashed=1;html=1;rounded=0;strokeColor=#D6D6D6;" edge="1" parent="bmNd_BosTsZR-IJBT62M-9">
          <mxGeometry width="50" height="50" relative="1" as="geometry">
            <mxPoint x="183" y="46" as="sourcePoint" />
            <mxPoint x="183" as="targetPoint" />
            <Array as="points">
              <mxPoint x="142" y="46" />
              <mxPoint x="142" y="26" />
              <mxPoint x="142" />
            </Array>
          </mxGeometry>
        </mxCell>
        <mxCell id="bmNd_BosTsZR-IJBT62M-2" value="" style="endArrow=none;dashed=1;html=1;rounded=0;strokeColor=#D6D6D6;" edge="1" parent="1">
          <mxGeometry width="50" height="50" relative="1" as="geometry">
            <mxPoint x="831" y="1437" as="sourcePoint" />
            <mxPoint x="831" y="1391" as="targetPoint" />
            <Array as="points">
              <mxPoint x="790" y="1437" />
              <mxPoint x="790" y="1417" />
              <mxPoint x="790" y="1391" />
            </Array>
          </mxGeometry>
        </mxCell>
      </root>
    </mxGraphModel>
  </diagram>
</mxfile>
